# xmcd CD database file
#
# Track frame offsets:
#	150
#	13025
#	25638
#	39498
#	48958
#	62203
#	70473
#	81475
#	91338
#	103158
#	115295
#	127753
#	138078
#	152520
#	162533
#
# Disc length: 2289 seconds
#
# Revision: 0
# Processed by: cddbd v1.4PL0 Copyright (c) Steve Scherf et al.
# Submitted via: CDex 1.40Beta9
#
DISCID=c208ef0f
DTITLE=Johnny Cash and Don Williams - The Country Kings
DYEAR=1990
DGENRE=Country
TTITLE0=Don Williams - Where Do We Go From Here ?
TTITLE1=Johnny Cash - Folsom Prison Blues
TTITLE2=Don Williams - Just An Ordinary Day
TTITLE3=Don Williams - Apartment 9
TTITLE4=Don Williams - Ruby Tuesday
TTITLE5=Johnny Cash - Sugartime
TTITLE6=Don Williams - Always Something There To Remind Me
TTITLE7=Johnny Cash - Hey Porter
TTITLE8=Don Williams - Follow Me Back To Louisville
TTITLE9=Don Williams - On Her Way To Be A Woman
TTITLE10=Johnny Cash - Two Timin' Women
TTITLE11=Don Williams - Take My Hand For A While
TTITLE12=Don Williams - Long Walk From Childhood
TTITLE13=Johnny Cash - Straight As In Love
TTITLE14=Don Williams - In My Life
EXTD=YEAR: 1990 ID3G: 2
EXTT0=
EXTT1=
EXTT2=
EXTT3=
EXTT4=
EXTT5=
EXTT6=
EXTT7=
EXTT8=
EXTT9=
EXTT10=
EXTT11=
EXTT12=
EXTT13=
EXTT14=
PLAYORDER=
